<?xml version="1.0" encoding="UTF-8"?>
<svg id="Layer_2" data-name="Layer 2" xmlns="http://www.w3.org/2000/svg" viewBox="0 0 497.43 188.11">
  <defs>
    <style>
      .cls-1 {
        fill: #fff;
        stroke-width: 0px;
      }
    </style>
  </defs>
  <g id="Layer_2-2" data-name="Layer 2">
    <g id="Layer_1-2" data-name="Layer 1-2">
      <g>
        <g>
          <path class="cls-1" d="m43.12,1.7v101.54c0,5.86-.19,14.56-6.24,20.8-3.6,3.59-8.7,5.86-15.7,5.86-5.86,0-9.83-1.51-13.8-4.73-3.97-3.21-6.43-7-7.38-8.51l5.87-4.92c1.51,2.84,3.59,5.48,5.86,7.19,3.21,2.46,6.62,3.4,9.83,3.4,3.41,0,6.81-1.33,9.08-3.59,3.97-3.97,4.16-9.45,4.16-14.18V1.7h8.32Z"/>
          <path class="cls-1" d="m101.92,1.7v78.85c0,11.91.56,19.66,5.3,27.23,7.37,11.91,21.18,14.56,29.31,14.56s21.93-2.65,29.31-14.56c4.73-7.56,5.29-15.32,5.29-27.23V1.7h8.32v78.85c0,13.8-.75,22.88-7.19,32.33-9.46,13.8-24.39,17.02-35.73,17.02s-26.28-3.22-35.74-17.02c-6.43-9.46-7.19-18.53-7.19-32.33V1.7h8.32Z"/>
          <path class="cls-1" d="m225.93,127.82V.38l105.88,110.8V1.7h8.32v129.33L234.25,20.23v107.59h-8.32Z"/>
          <path class="cls-1" d="m497.43,65.05c0,36.3-28.55,64.85-65.42,64.85s-65.42-28.55-65.42-64.85S395.14,0,432.01,0s65.42,28.74,65.42,65.05h0Zm-8.69,0c0-32.33-24.2-57.48-56.72-57.48s-56.72,25.15-56.72,57.48,24.2,57.29,56.72,57.29,56.72-25.15,56.72-57.29Z"/>
        </g>
        <g>
          <path class="cls-1" d="m10.55,156.48c2.04,0,5.08.14,7.35,1.68,1.77,1.18,3.31,3.49,3.31,6.71,0,4.63-3.04,8.03-7.63,8.35l9.62,13.52h-4.09l-9.21-13.25h-.86v13.25h-3.36v-30.27h4.87Zm-1.5,14.02h2.13c4.18,0,6.67-2,6.67-5.54,0-1.68-.5-3.36-2.41-4.45-1.36-.77-2.9-.86-4.36-.86h-2.04v10.85h.01Z"/>
          <path class="cls-1" d="m48.78,159.66h-12.34v8.99h11.98v3.18h-11.98v11.76h12.34v3.18h-15.7v-30.27h15.7v3.18-.02Z"/>
          <path class="cls-1" d="m76.25,178.22h-12.88l-3.63,8.53h-3.72l13.93-31.72,13.56,31.72h-3.72s-3.54-8.53-3.54-8.53Zm-1.32-3.18l-5.08-12.12-5.17,12.12h10.26-.01Z"/>
          <path class="cls-1" d="m95.74,156.48v27.09h8.35v3.18h-11.71v-30.27h3.36Z"/>
          <path class="cls-1" d="m120.67,159.66v27.09h-3.36v-27.09h-7.35v-3.18h18.06v3.18h-7.35Z"/>
          <path class="cls-1" d="m143.56,173.72l-9.94-17.24h3.9l7.72,13.52,7.8-13.52h3.91l-10.03,17.24v13.02h-3.35v-13.02h0Z"/>
          <path class="cls-1" d="m186.47,156.48c3.04,0,5.58.36,7.62,2.13,2.22,1.9,2.77,4.58,2.77,6.49,0,4.27-2.68,8.49-9.58,8.49h-2.95v13.16h-3.36v-30.27h5.5Zm-2.13,13.93h2.77c3.99,0,6.4-2,6.4-5.49,0-4.81-4.49-5.26-6.67-5.26h-2.5v10.76h0Z"/>
          <path class="cls-1" d="m222.97,178.22h-12.88l-3.63,8.53h-3.72l13.93-31.72,13.56,31.72h-3.72l-3.54-8.53Zm-1.32-3.18l-5.08-12.12-5.17,12.12h10.26,0Z"/>
          <path class="cls-1" d="m243.96,156.48c2.04,0,5.08.14,7.35,1.68,1.77,1.18,3.31,3.49,3.31,6.71,0,4.63-3.04,8.03-7.63,8.35l9.62,13.52h-4.09l-9.21-13.25h-.86v13.25h-3.36v-30.27h4.87Zm-1.5,14.02h2.13c4.18,0,6.67-2,6.67-5.54,0-1.68-.5-3.36-2.41-4.45-1.36-.77-2.9-.86-4.36-.86h-2.04v10.85h0Z"/>
          <path class="cls-1" d="m273.93,159.66v27.09h-3.36v-27.09h-7.35v-3.18h18.07v3.18h-7.36Z"/>
          <path class="cls-1" d="m290.42,186.75v-31.54l23.6,24.73v-23.46h3.36v31.63l-23.6-24.73v23.37h-3.36Z"/>
          <path class="cls-1" d="m345.49,159.66h-12.34v8.99h11.98v3.18h-11.98v11.76h12.34v3.18h-15.7v-30.27h15.7v3.18-.02Z"/>
          <path class="cls-1" d="m361.12,156.48c2.04,0,5.08.14,7.35,1.68,1.77,1.18,3.31,3.49,3.31,6.71,0,4.63-3.04,8.03-7.63,8.35l9.62,13.52h-4.09l-9.21-13.25h-.86v13.25h-3.36v-30.27h4.87Zm-1.5,14.02h2.13c4.18,0,6.67-2,6.67-5.54,0-1.68-.5-3.36-2.41-4.45-1.36-.77-2.9-.86-4.36-.86h-2.04v10.85h0Z"/>
          <path class="cls-1" d="m397.17,162.47c-.41-.82-1.09-1.73-1.77-2.27-.59-.45-1.68-1.04-3.41-1.04-2.99,0-5.08,1.86-5.08,4.67,0,1.18.32,1.86,1.14,2.63.91.91,2.04,1.41,3.18,1.9l2.9,1.27c1.77.77,3.41,1.59,4.67,2.86,1.54,1.54,2.18,3.31,2.18,5.49,0,5.58-4.13,9.3-9.57,9.3-2,0-4.49-.41-6.58-2.45-1.5-1.45-2.4-3.54-2.81-5.35l3.27-.91c.22,1.59.95,2.95,1.82,3.86,1.31,1.31,2.81,1.68,4.36,1.68,4.13,0,6.08-2.95,6.08-5.99,0-1.36-.41-2.54-1.5-3.54-.86-.82-2.04-1.36-3.63-2.09l-2.72-1.27c-1.18-.55-2.68-1.18-4.04-2.5-1.32-1.27-2.09-2.68-2.09-4.95,0-4.67,3.59-7.8,8.49-7.8,1.86,0,3.36.36,4.86,1.36,1.22.82,2.27,2.04,2.95,3.36l-2.68,1.77h-.02Z"/>
          <path class="cls-1" d="m430.28,156.48v27.09h8.35v3.18h-11.71v-30.27h3.36Z"/>
          <path class="cls-1" d="m451.12,156.48v27.09h8.35v3.18h-11.71v-30.27h3.36Z"/>
          <path class="cls-1" d="m491.75,163.15c-.95-.95-2.4-2.09-3.95-2.81-1.58-.73-3.45-1.18-5.21-1.18-6.99,0-12.16,5.63-12.16,12.61,0,8.21,6.67,12.34,12.21,12.34,2.04,0,4.03-.59,5.62-1.41,1.72-.86,2.95-2,3.49-2.54v4.17c-3.35,2.41-6.85,2.95-9.12,2.95-8.99,0-15.66-6.81-15.66-15.56s6.76-15.75,15.84-15.75c1.82,0,5.31.22,8.94,2.99v4.19Z"/>
        </g>
      </g>
    </g>
  </g>
</svg>