<?xml version="1.0" encoding="UTF-8"?>
<svg id="Layer_2" data-name="Layer 2" xmlns="http://www.w3.org/2000/svg" viewBox="0 0 132.79 99.6">
  <defs>
    <style>
      .cls-1 {
        fill: #b41f27;
        stroke-width: 0px;
      }
    </style>
  </defs>
  <g id="Layer_1-2" data-name="Layer 1">
    <path class="cls-1" d="m29.95,57.02C12.63,57.02,0,46.19,0,29.23S12.27,0,29.59,0c15.88,0,29.23,10.1,29.23,31.76,0,27.42-21.65,53.41-54.85,67.84l-2.17-5.05c15.16-10.83,24.18-22.37,28.15-37.53ZM103.57,0c15.88,0,29.23,10.1,29.23,31.76,0,27.42-21.65,53.41-54.85,67.84l-2.17-5.05c15.16-10.83,24.18-22.37,28.15-37.53-17.32,0-29.95-10.83-29.95-27.79S86.24,0,103.57,0Z"/>
  </g>
</svg>