<?xml version="1.0" encoding="UTF-8"?>
<svg id="Layer_2" data-name="Layer 2" xmlns="http://www.w3.org/2000/svg" viewBox="0 0 132.79 99.6">
  <defs>
    <style>
      .cls-1 {
        fill: #b41f27;
        stroke-width: 0px;
      }
    </style>
  </defs>
  <g id="Layer_1-2" data-name="Layer 1">
    <path class="cls-1" d="m0,67.84C0,40.42,21.65,14.43,54.85,0l2.17,5.05c-15.16,10.46-24.18,22.01-28.15,37.17,17.32,0,29.95,11.19,29.95,28.15s-12.27,29.23-29.59,29.23c-15.88,0-29.23-10.1-29.23-31.75ZM128.83,0l2.17,5.05c-15.16,10.46-24.18,22.01-28.15,37.17,17.32,0,29.95,11.19,29.95,28.15s-12.27,29.23-29.59,29.23c-15.88,0-29.23-10.1-29.23-31.75,0-27.43,21.65-53.41,54.85-67.84Z"/>
  </g>
</svg>